<?xml version="1.0" encoding="UTF-8" standalone="no"?>
<!-- Created with Inkscape (http://www.inkscape.org/) -->

<svg
   version="1.1"
   id="svg2"
   width="406.74667"
   height="415.88"
   viewBox="0 0 406.74667 415.88"
   sodipodi:docname="american-institute-of-steel-construction-seeklogo.eps"
   xmlns:inkscape="http://www.inkscape.org/namespaces/inkscape"
   xmlns:sodipodi="http://sodipodi.sourceforge.net/DTD/sodipodi-0.dtd"
   xmlns="http://www.w3.org/2000/svg"
   xmlns:svg="http://www.w3.org/2000/svg">
  <defs
     id="defs6" />
  <sodipodi:namedview
     id="namedview4"
     pagecolor="#ffffff"
     bordercolor="#000000"
     borderopacity="0.25"
     inkscape:showpageshadow="2"
     inkscape:pageopacity="0.0"
     inkscape:pagecheckerboard="0"
     inkscape:deskcolor="#d1d1d1" />
  <g
     id="g8"
     inkscape:groupmode="layer"
     inkscape:label="ink_ext_XXXXXX"
     transform="matrix(1.3333333,0,0,-1.3333333,0,415.88)">
    <g
       id="g10"
       transform="scale(0.1)">
      <path
         d="m 1525.3,0 c 861.3,0 1525.29,698.25 1525.29,1559.57 0,861.31 -663.99,1559.57 -1525.29,1559.57 C 663.977,3119.14 0,2420.88 0,1559.57 0,698.25 663.977,0 1525.3,0"
         style="fill:#231f20;fill-opacity:1;fill-rule:nonzero;stroke:none"
         id="path12" />
      <path
         d="m 1525.3,105.898 c 802.83,0 1421.72,650.84 1421.72,1453.672 0,802.83 -618.89,1453.68 -1421.72,1453.68 -802.835,0 -1421.73,-650.85 -1421.73,-1453.68 0,-802.832 618.895,-1453.672 1421.73,-1453.672"
         style="fill:#ffffff;fill-opacity:1;fill-rule:nonzero;stroke:none"
         id="path14" />
      <path
         d="m 894.82,563.359 62.118,-38.57 -10.961,-17.668 -49.536,30.77 -31.105,-50.129 43.441,-26.973 -10.961,-17.668 -43.441,26.981 -44.805,-72.204 -12.582,7.813 97.832,157.648"
         style="fill:#231f20;fill-opacity:1;fill-rule:nonzero;stroke:none"
         id="path16" />
      <path
         d="m 894.82,563.359 62.118,-38.57 -10.961,-17.668 -49.536,30.77 -31.105,-50.129 43.441,-26.973 -10.961,-17.668 -43.441,26.981 -44.805,-72.204 -12.582,7.813 z"
         style="fill:none;stroke:#231f20;stroke-width:10.752;stroke-linecap:butt;stroke-linejoin:miter;stroke-miterlimit:4;stroke-dasharray:none;stroke-opacity:1"
         id="path18" />
      <path
         d="m 965.652,330.648 c 24.559,-11.519 51.428,18.934 67.338,52.821 15.91,33.883 22.18,74 -2.38,85.531 -24.56,11.52 -51.43,-18.941 -67.34,-52.82 -15.907,-33.879 -22.176,-74.008 2.382,-85.532 z m 73.798,157.172 c 32.04,-15.031 28.39,-65 6.95,-110.64 -21.43,-45.649 -57.548,-80.391 -89.584,-65.348 -32.043,15.027 -28.386,65 -6.953,110.637 21.43,45.652 57.547,80.39 89.587,65.351"
         style="fill:#231f20;fill-opacity:1;fill-rule:nonzero;stroke:none"
         id="path20" />
      <path
         d="m 965.652,330.648 c 24.559,-11.519 51.428,18.934 67.338,52.821 15.91,33.883 22.18,74 -2.38,85.531 -24.56,11.52 -51.43,-18.941 -67.34,-52.82 -15.907,-33.879 -22.176,-74.008 2.382,-85.532 z m 73.798,157.172 c 32.04,-15.031 28.39,-65 6.95,-110.64 -21.43,-45.649 -57.548,-80.391 -89.584,-65.348 -32.043,15.027 -28.386,65 -6.953,110.637 21.43,45.652 57.547,80.39 89.587,65.351 z"
         style="fill:none;stroke:#231f20;stroke-width:10.752;stroke-linecap:butt;stroke-linejoin:miter;stroke-miterlimit:4;stroke-dasharray:none;stroke-opacity:1"
         id="path22" />
      <path
         d="m 1175.44,305.371 c -14.4,-44.519 -37.28,-63.09 -63.71,-54.562 -27.32,8.82 -36.7,35.07 -21.51,82.062 l 36.46,112.789 14.1,-4.551 -36.46,-112.789 c -10.07,-31.172 -4.9,-51.679 13.81,-57.718 17.81,-5.75 33.13,8.148 43.2,39.32 l 36.46,112.789 14.11,-4.551 -36.46,-112.789"
         style="fill:#231f20;fill-opacity:1;fill-rule:nonzero;stroke:none"
         id="path24" />
      <path
         d="m 1175.44,305.371 c -14.4,-44.519 -37.28,-63.09 -63.71,-54.562 -27.32,8.82 -36.7,35.07 -21.51,82.062 l 36.46,112.789 14.1,-4.551 -36.46,-112.789 c -10.07,-31.172 -4.9,-51.679 13.81,-57.718 17.81,-5.75 33.13,8.148 43.2,39.32 l 36.46,112.789 14.11,-4.551 z"
         style="fill:none;stroke:#231f20;stroke-width:10.752;stroke-linecap:butt;stroke-linejoin:miter;stroke-miterlimit:4;stroke-dasharray:none;stroke-opacity:1"
         id="path26" />
      <path
         d="m 1260.24,405.789 15.47,-2.98 29.16,-158.879 0.31,-0.051 28.44,147.801 13.79,-2.649 -35.08,-182.269 -15.93,3.058 -28.99,157.262 -0.31,0.059 -28.15,-146.27 -13.79,2.649 35.08,182.269"
         style="fill:#231f20;fill-opacity:1;fill-rule:nonzero;stroke:none"
         id="path28" />
      <path
         d="m 1260.24,405.789 15.47,-2.98 29.16,-158.879 0.31,-0.051 28.44,147.801 13.79,-2.649 -35.08,-182.269 -15.93,3.058 -28.99,157.262 -0.31,0.059 -28.15,-146.27 -13.79,2.649 z"
         style="fill:none;stroke:#231f20;stroke-width:10.752;stroke-linecap:butt;stroke-linejoin:miter;stroke-miterlimit:4;stroke-dasharray:none;stroke-opacity:1"
         id="path30" />
      <path
         d="m 1400.6,217.129 24.59,-1.758 c 10.12,-0.73 37.69,1.988 42.54,70.168 3.14,44.07 -4.76,71.481 -32,73.43 l -24.9,1.781 z m -3.08,165.422 38.13,-2.731 c 34.24,-2.449 51.36,-32.34 47.11,-91.961 -4.42,-61.968 -23.25,-95.8 -60.29,-93.14 l -38.13,2.73 13.18,185.102"
         style="fill:#231f20;fill-opacity:1;fill-rule:nonzero;stroke:none"
         id="path32" />
      <path
         d="m 1400.6,217.129 24.59,-1.758 c 10.12,-0.73 37.69,1.988 42.54,70.168 3.14,44.07 -4.76,71.481 -32,73.43 l -24.9,1.781 z m -3.08,165.422 38.13,-2.731 c 34.24,-2.449 51.36,-32.34 47.11,-91.961 -4.42,-61.968 -23.25,-95.8 -60.29,-93.14 l -38.13,2.73 z"
         style="fill:none;stroke:#231f20;stroke-width:10.752;stroke-linecap:butt;stroke-linejoin:miter;stroke-miterlimit:4;stroke-dasharray:none;stroke-opacity:1"
         id="path34" />
      <path
         d="m 1534.74,375.992 76.81,2.86 0.76,-20.782 -62,-2.308 2.18,-58.953 57.8,2.152 0.77,-20.781 -57.8,-2.149 2.37,-64.152 62.48,2.332 0.77,-20.77 -77.27,-2.882 -6.87,185.433"
         style="fill:#231f20;fill-opacity:1;fill-rule:nonzero;stroke:none"
         id="path36" />
      <path
         d="m 1534.74,375.992 76.81,2.86 0.76,-20.782 -62,-2.308 2.18,-58.953 57.8,2.152 0.77,-20.781 -57.8,-2.149 2.37,-64.152 62.48,2.332 0.77,-20.77 -77.27,-2.882 z"
         style="fill:none;stroke:#231f20;stroke-width:10.752;stroke-linecap:butt;stroke-linejoin:miter;stroke-miterlimit:4;stroke-dasharray:none;stroke-opacity:1"
         id="path38" />
      <path
         d="m 1695.98,222.191 24.38,3.641 c 10.03,1.5 36.33,10.16 26.26,77.777 -6.51,43.711 -20.17,68.743 -47.17,64.7 l -24.68,-3.68 z m -38.93,160.821 37.79,5.648 c 33.94,5.059 57.13,-20.379 65.94,-79.519 9.15,-61.45 -1.88,-98.582 -38.59,-104.059 l -37.8,-5.652 -27.34,183.582"
         style="fill:#231f20;fill-opacity:1;fill-rule:nonzero;stroke:none"
         id="path40" />
      <path
         d="m 1695.98,222.191 24.38,3.641 c 10.03,1.5 36.33,10.16 26.26,77.777 -6.51,43.711 -20.17,68.743 -47.17,64.7 l -24.68,-3.68 z m -38.93,160.821 37.79,5.648 c 33.94,5.059 57.13,-20.379 65.94,-79.519 9.15,-61.45 -1.88,-98.582 -38.59,-104.059 l -37.8,-5.652 z"
         style="fill:none;stroke:#231f20;stroke-width:10.752;stroke-linecap:butt;stroke-linejoin:miter;stroke-miterlimit:4;stroke-dasharray:none;stroke-opacity:1"
         id="path42" />
      <path
         d="m 1963.5,263.629 -12.57,-4.219 -41.94,125.18 -27.2,-9.121 -5.62,16.761 c 14.35,4.809 25.21,15.579 19.19,42.891 l 9.61,3.219 58.53,-174.711"
         style="fill:#231f20;fill-opacity:1;fill-rule:nonzero;stroke:none"
         id="path44" />
      <path
         d="m 1963.5,263.629 -12.57,-4.219 -41.94,125.18 -27.2,-9.121 -5.62,16.761 c 14.35,4.809 25.21,15.579 19.19,42.891 l 9.61,3.219 z"
         style="fill:none;stroke:#231f20;stroke-width:10.752;stroke-linecap:butt;stroke-linejoin:miter;stroke-miterlimit:4;stroke-dasharray:none;stroke-opacity:1"
         id="path46" />
      <path
         d="m 2006.17,457.801 c -14.34,-6.512 -11.05,-28.129 -1.72,-48.742 8.37,-18.469 24.33,-31.789 35.98,-26.5 12.64,5.73 12.87,26.382 3.86,46.281 -9.33,20.601 -24.62,35.082 -38.12,28.961 z m 31.34,-117.949 c 8.26,-15.961 20.4,-21.59 30.06,-17.211 14.77,6.699 12.25,31.531 -6.67,75.191 l -0.49,0.348 c 1.88,-16.27 -2.99,-29.328 -12.79,-33.77 -20.46,-9.269 -42.22,8.539 -57.24,41.699 -14.7,32.442 -11.15,60.891 8.32,69.711 18.75,8.5 42.13,-1.172 70.88,-64.629 26.28,-58.031 30.47,-95.23 6.03,-106.312 -16.9,-7.66 -35.52,1.312 -50.17,29.492 l 12.07,5.481"
         style="fill:#231f20;fill-opacity:1;fill-rule:nonzero;stroke:none"
         id="path48" />
      <path
         d="m 2006.17,457.801 c -14.34,-6.512 -11.05,-28.129 -1.72,-48.742 8.37,-18.469 24.33,-31.789 35.98,-26.5 12.64,5.73 12.87,26.382 3.86,46.281 -9.33,20.601 -24.62,35.082 -38.12,28.961 z m 31.34,-117.949 c 8.26,-15.961 20.4,-21.59 30.06,-17.211 14.77,6.699 12.25,31.531 -6.67,75.191 l -0.49,0.348 c 1.88,-16.27 -2.99,-29.328 -12.79,-33.77 -20.46,-9.269 -42.22,8.539 -57.24,41.699 -14.7,32.442 -11.15,60.891 8.32,69.711 18.75,8.5 42.13,-1.172 70.88,-64.629 26.28,-58.031 30.47,-95.23 6.03,-106.312 -16.9,-7.66 -35.52,1.312 -50.17,29.492 z"
         style="fill:none;stroke:#231f20;stroke-width:10.752;stroke-linecap:butt;stroke-linejoin:miter;stroke-miterlimit:4;stroke-dasharray:none;stroke-opacity:1"
         id="path50" />
      <path
         d="m 2103.3,454.309 c -19.79,31.793 -22.35,62.511 -2.14,74.293 16.71,9.75 39.34,1.277 56.62,-28.372 16.37,-28.082 13.29,-48.828 8.64,-68.101 -4.93,-19.117 -11.56,-36.527 -2.33,-57.629 l 49.04,28.602 9.82,-16.852 -62.38,-36.379 c -20.11,38.84 -16.51,58.988 -11.16,80.77 6.48,26.05 8.94,40.73 -3.89,62.738 -10.08,17.301 -25.11,23.883 -35.22,17.992 -13.33,-7.781 -7.08,-31.519 4.45,-50.379 l -11.45,-6.683"
         style="fill:#231f20;fill-opacity:1;fill-rule:nonzero;stroke:none"
         id="path52" />
      <path
         d="m 2103.3,454.309 c -19.79,31.793 -22.35,62.511 -2.14,74.293 16.71,9.75 39.34,1.277 56.62,-28.372 16.37,-28.082 13.29,-48.828 8.64,-68.101 -4.93,-19.117 -11.56,-36.527 -2.33,-57.629 l 49.04,28.602 9.82,-16.852 -62.38,-36.379 c -20.11,38.84 -16.51,58.988 -11.16,80.77 6.48,26.05 8.94,40.73 -3.89,62.738 -10.08,17.301 -25.11,23.883 -35.22,17.992 -13.33,-7.781 -7.08,-31.519 4.45,-50.379 z"
         style="fill:none;stroke:#231f20;stroke-width:10.752;stroke-linecap:butt;stroke-linejoin:miter;stroke-miterlimit:4;stroke-dasharray:none;stroke-opacity:1"
         id="path54" />
      <path
         d="m 2316.41,450.012 -10.72,-7.813 -77.74,106.742 -23.19,-16.902 -10.41,14.293 c 12.22,8.898 19.34,22.449 5.36,46.68 l 8.19,5.968 108.51,-148.968"
         style="fill:#231f20;fill-opacity:1;fill-rule:nonzero;stroke:none"
         id="path56" />
      <path
         d="m 2316.41,450.012 -10.72,-7.813 -77.74,106.742 -23.19,-16.902 -10.41,14.293 c 12.22,8.898 19.34,22.449 5.36,46.68 l 8.19,5.968 z"
         style="fill:none;stroke:#231f20;stroke-width:10.752;stroke-linecap:butt;stroke-linejoin:miter;stroke-miterlimit:4;stroke-dasharray:none;stroke-opacity:1"
         id="path58" />
      <path
         d="m 1525.3,473.25 c 599.95,0 1062.45,486.371 1062.45,1086.32 0,599.95 -462.5,1086.32 -1062.45,1086.32 -599.948,0 -1062.445,-486.37 -1062.445,-1086.32 0,-599.949 462.497,-1086.32 1062.445,-1086.32"
         style="fill:#231f20;fill-opacity:1;fill-rule:nonzero;stroke:none"
         id="path60" />
      <path
         d="m 333.832,1271.71 -46.156,-23.66 c -10.481,-5.34 -20.16,-9.54 -29.59,-13.68 l 0.09,-0.36 c 10.281,0.61 21.32,1.4 32.277,1.42 l 52.098,0.2 z m 26.664,-35.12 56.567,0.52 3.839,-15.91 -180.136,-0.36 -4.442,18.39 160.485,81.71 3.972,-16.45 -50.492,-25.64 10.207,-42.26"
         style="fill:#231f20;fill-opacity:1;fill-rule:nonzero;stroke:none"
         id="path62" />
      <path
         d="m 333.832,1271.71 -46.156,-23.66 c -10.481,-5.34 -20.16,-9.54 -29.59,-13.68 l 0.09,-0.36 c 10.281,0.61 21.32,1.4 32.277,1.42 l 52.098,0.2 z m 26.664,-35.12 56.567,0.52 3.839,-15.91 -180.136,-0.36 -4.442,18.39 160.485,81.71 3.972,-16.45 -50.492,-25.64 z"
         style="fill:none;stroke:#231f20;stroke-width:10.752;stroke-linecap:butt;stroke-linejoin:miter;stroke-miterlimit:4;stroke-dasharray:none;stroke-opacity:1"
         id="path64" />
      <path
         d="m 302.672,1438.58 c -24.125,-3.95 -53.391,-8.72 -74.789,-11.4 l 0.043,-0.36 c 20.66,-1.81 43.191,-3.93 67.949,-7.06 l 87.031,-10.91 1.496,-11.91 -80.277,-30.24 c -24.027,-8.88 -45.613,-16.36 -65.809,-22.37 l 0.043,-0.37 c 21.707,2.36 50.704,5.08 77.145,7.29 l 74.93,6.11 1.89,-14.99 -174.879,-13.32 -2.519,20.04 81.453,31.3 c 20.766,7.74 39.348,14.11 56.988,19.62 l -0.043,0.37 c -17.949,1.05 -37.57,2.98 -60.176,5.65 l -86.796,11.11 -2.524,20.04 172.852,29.39 1.957,-15.53 -75.965,-12.46"
         style="fill:#231f20;fill-opacity:1;fill-rule:nonzero;stroke:none"
         id="path66" />
      <path
         d="m 302.672,1438.58 c -24.125,-3.95 -53.391,-8.72 -74.789,-11.4 l 0.043,-0.36 c 20.66,-1.81 43.191,-3.93 67.949,-7.06 l 87.031,-10.91 1.496,-11.91 -80.277,-30.24 c -24.027,-8.88 -45.613,-16.36 -65.809,-22.37 l 0.043,-0.37 c 21.707,2.36 50.704,5.08 77.145,7.29 l 74.93,6.11 1.89,-14.99 -174.879,-13.32 -2.519,20.04 81.453,31.3 c 20.766,7.74 39.348,14.11 56.988,19.62 l -0.043,0.37 c -17.949,1.05 -37.57,2.98 -60.176,5.65 l -86.796,11.11 -2.524,20.04 172.852,29.39 1.957,-15.53 z"
         style="fill:none;stroke:#231f20;stroke-width:10.752;stroke-linecap:butt;stroke-linejoin:miter;stroke-miterlimit:4;stroke-dasharray:none;stroke-opacity:1"
         id="path68" />
      <path
         d="m 292.324,1559.61 1.153,-47.47 63.144,1.52 -1.289,53.11 18.969,0.46 1.679,-69.12 -175.14,-4.22 -1.617,66.39 18.968,0.46 1.227,-50.38 55.348,1.33 -1.153,47.47 18.711,0.45"
         style="fill:#231f20;fill-opacity:1;fill-rule:nonzero;stroke:none"
         id="path70" />
      <path
         d="m 292.324,1559.61 1.153,-47.47 63.144,1.52 -1.289,53.11 18.969,0.46 1.679,-69.12 -175.14,-4.22 -1.617,66.39 18.968,0.46 1.227,-50.38 55.348,1.33 -1.153,47.47 z"
         style="fill:none;stroke:#231f20;stroke-width:10.752;stroke-linecap:butt;stroke-linejoin:miter;stroke-miterlimit:4;stroke-dasharray:none;stroke-opacity:1"
         id="path72" />
      <path
         d="m 282.895,1617.42 0.929,16.17 c 0.961,16.91 -11.66,28.38 -31.644,29.52 -22.586,1.29 -33.102,-9.6 -34.055,-26.31 -0.437,-7.64 0.039,-12.95 0.922,-15.74 z m -80.582,-11.27 c -1.622,8.12 -2.512,19.84 -1.903,30.56 0.969,16.9 6.27,27.72 16.301,34.62 8.129,5.56 20.277,8.51 34.031,7.73 22.844,-1.31 37.574,-12.36 43.074,-25.43 l 0.778,-0.05 c 5.207,9 17.984,13.93 36.32,15.8 24.621,2.61 41.664,4.55 48.555,6.71 l -0.934,-16.35 c -5.305,-1.71 -20.254,-3.59 -42.246,-5.62 -24.348,-2.26 -33.812,-8.46 -35.41,-22.77 l -0.852,-14.91 75.789,-4.32 -0.906,-15.81 -172.597,9.84"
         style="fill:#231f20;fill-opacity:1;fill-rule:nonzero;stroke:none"
         id="path74" />
      <path
         d="m 282.895,1617.42 0.929,16.17 c 0.961,16.91 -11.66,28.38 -31.644,29.52 -22.586,1.29 -33.102,-9.6 -34.055,-26.31 -0.437,-7.64 0.039,-12.95 0.922,-15.74 z m -80.582,-11.27 c -1.622,8.12 -2.512,19.84 -1.903,30.56 0.969,16.9 6.27,27.72 16.301,34.62 8.129,5.56 20.277,8.51 34.031,7.73 22.844,-1.31 37.574,-12.36 43.074,-25.43 l 0.778,-0.05 c 5.207,9 17.984,13.93 36.32,15.8 24.621,2.61 41.664,4.55 48.555,6.71 l -0.934,-16.35 c -5.305,-1.71 -20.254,-3.59 -42.246,-5.62 -24.348,-2.26 -33.812,-8.46 -35.41,-22.77 l -0.852,-14.91 75.789,-4.32 -0.906,-15.81 z"
         style="fill:none;stroke:#231f20;stroke-width:10.752;stroke-linecap:butt;stroke-linejoin:miter;stroke-miterlimit:4;stroke-dasharray:none;stroke-opacity:1"
         id="path76" />
      <path
         d="m 211.078,1739.69 173.91,-21.29 -1.945,-15.9 -173.91,21.29 1.945,15.9"
         style="fill:#231f20;fill-opacity:1;fill-rule:nonzero;stroke:none"
         id="path78" />
      <path
         d="m 211.078,1739.69 173.91,-21.29 -1.945,-15.9 -173.91,21.29 z"
         style="fill:none;stroke:#231f20;stroke-width:10.752;stroke-linecap:butt;stroke-linejoin:miter;stroke-miterlimit:4;stroke-dasharray:none;stroke-opacity:1"
         id="path80" />
      <path
         d="m 400.387,1839.81 c 3.019,-6.32 4.871,-18.72 2.058,-33.37 -6.523,-33.95 -42.035,-53.43 -98.707,-42.52 -54.121,10.42 -85.457,42.94 -78.285,80.29 2.852,14.83 9.305,23.59 13.156,27.11 l 17.368,-7.41 c -5.18,-4.94 -9.86,-12.74 -11.782,-22.75 -5.425,-28.23 16.75,-51.96 61.938,-60.65 42.379,-8.16 72.441,3.65 78.039,32.78 1.851,9.65 0.902,19.84 -2.238,26.93 l 18.453,-0.41"
         style="fill:#231f20;fill-opacity:1;fill-rule:nonzero;stroke:none"
         id="path82" />
      <path
         d="m 400.387,1839.81 c 3.019,-6.32 4.871,-18.72 2.058,-33.37 -6.523,-33.95 -42.035,-53.43 -98.707,-42.52 -54.121,10.42 -85.457,42.94 -78.285,80.29 2.852,14.83 9.305,23.59 13.156,27.11 l 17.368,-7.41 c -5.18,-4.94 -9.86,-12.74 -11.782,-22.75 -5.425,-28.23 16.75,-51.96 61.938,-60.65 42.379,-8.16 72.441,3.65 78.039,32.78 1.851,9.65 0.902,19.84 -2.238,26.93 z"
         style="fill:none;stroke:#231f20;stroke-width:10.752;stroke-linecap:butt;stroke-linejoin:miter;stroke-miterlimit:4;stroke-dasharray:none;stroke-opacity:1"
         id="path84" />
      <path
         d="m 359.684,1943.87 -51.817,2.54 c -11.746,0.61 -22.23,1.8 -32.469,2.92 l -0.101,-0.35 c 9.211,-4.61 19.168,-9.44 28.668,-14.89 l 45.223,-25.83 z m 5.535,-43.75 49.258,-27.78 -4.629,-15.7 -156.219,89.61 5.351,18.15 179.872,-9.31 -4.782,-16.24 -56.558,3 -12.293,-41.73"
         style="fill:#231f20;fill-opacity:1;fill-rule:nonzero;stroke:none"
         id="path86" />
      <path
         d="m 359.684,1943.87 -51.817,2.54 c -11.746,0.61 -22.23,1.8 -32.469,2.92 l -0.101,-0.35 c 9.211,-4.61 19.168,-9.44 28.668,-14.89 l 45.223,-25.83 z m 5.535,-43.75 49.258,-27.78 -4.629,-15.7 -156.219,89.61 5.351,18.15 179.872,-9.31 -4.782,-16.24 -56.558,3 z"
         style="fill:none;stroke:#231f20;stroke-width:10.752;stroke-linecap:butt;stroke-linejoin:miter;stroke-miterlimit:4;stroke-dasharray:none;stroke-opacity:1"
         id="path88" />
      <path
         d="m 447.48,1978.95 -162.085,66.44 6.621,16.16 96.832,2.57 c 22.379,0.46 42.211,0.19 60.941,-1.39 l -0.031,0.6 c -22.199,7.53 -42.055,15.27 -67.309,25.62 l -67.808,27.8 5.652,13.8 162.086,-66.43 -6.07,-14.81 -97,-2.31 c -21.282,-0.52 -42.903,-0.5 -62.731,1.14 l 0.031,-0.61 c 20.786,-7.53 40.332,-15.35 67.27,-26.39 l 69.258,-28.39 -5.657,-13.8"
         style="fill:#231f20;fill-opacity:1;fill-rule:nonzero;stroke:none"
         id="path90" />
      <path
         d="m 447.48,1978.95 -162.085,66.44 6.621,16.16 96.832,2.57 c 22.379,0.46 42.211,0.19 60.941,-1.39 l -0.031,0.6 c -22.199,7.53 -42.055,15.27 -67.309,25.62 l -67.808,27.8 5.652,13.8 162.086,-66.43 -6.07,-14.81 -97,-2.31 c -21.282,-0.52 -42.903,-0.5 -62.731,1.14 l 0.031,-0.61 c 20.786,-7.53 40.332,-15.35 67.27,-26.39 l 69.258,-28.39 z"
         style="fill:none;stroke:#231f20;stroke-width:10.752;stroke-linecap:butt;stroke-linejoin:miter;stroke-miterlimit:4;stroke-dasharray:none;stroke-opacity:1"
         id="path92" />
      <path
         d="m 401.941,2286.43 149.536,-91.33 -8.34,-13.67 -149.532,91.32 8.336,13.68"
         style="fill:#231f20;fill-opacity:1;fill-rule:nonzero;stroke:none"
         id="path94" />
      <path
         d="m 401.941,2286.43 149.536,-91.33 -8.34,-13.67 -149.532,91.32 z"
         style="fill:none;stroke:#231f20;stroke-width:10.752;stroke-linecap:butt;stroke-linejoin:miter;stroke-miterlimit:4;stroke-dasharray:none;stroke-opacity:1"
         id="path96" />
      <path
         d="m 572.281,2226.04 -142.031,102.53 10.223,14.16 94.757,-20.15 c 21.872,-4.79 41.086,-9.69 58.93,-15.61 l 0.11,0.6 c -19.817,12.51 -37.313,24.68 -59.434,40.66 l -59.426,42.9 8.735,12.1 142.027,-102.54 -9.375,-12.98 -94.859,20.45 c -20.809,4.48 -41.825,9.55 -60.727,15.79 l -0.106,-0.59 c 18.442,-12.2 35.618,-24.38 59.215,-41.41 l 60.692,-43.82 -8.731,-12.09"
         style="fill:#231f20;fill-opacity:1;fill-rule:nonzero;stroke:none"
         id="path98" />
      <path
         d="m 572.281,2226.04 -142.031,102.53 10.223,14.16 94.757,-20.15 c 21.872,-4.79 41.086,-9.69 58.93,-15.61 l 0.11,0.6 c -19.817,12.51 -37.313,24.68 -59.434,40.66 l -59.426,42.9 8.735,12.1 142.027,-102.54 -9.375,-12.98 -94.859,20.45 c -20.809,4.48 -41.825,9.55 -60.727,15.79 l -0.106,-0.59 c 18.442,-12.2 35.618,-24.38 59.215,-41.41 l 60.692,-43.82 z"
         style="fill:none;stroke:#231f20;stroke-width:10.752;stroke-linecap:butt;stroke-linejoin:miter;stroke-miterlimit:4;stroke-dasharray:none;stroke-opacity:1"
         id="path100" />
      <path
         d="m 626.801,2344.56 c 9.566,1.03 20.008,5.42 27.219,13.61 10.703,12.15 7.789,27.33 -5.469,39.01 -12.09,10.66 -23.641,12.1 -41.207,5.51 -21.031,-8.15 -40.52,-7.47 -58.848,8.68 -20.473,18.04 -25.226,43.32 -9.473,61.21 8.18,9.29 17.426,13.5 24.231,14.55 l 10.961,-15.48 c -5.059,-0.63 -14.176,-3.52 -21.512,-11.85 -11.062,-12.57 -4.543,-26.79 4.426,-34.69 12.285,-10.83 23.262,-10.56 41.465,-4.04 22.285,8.01 39.863,6.34 59.172,-10.67 20.281,-17.86 28.882,-43.88 9.769,-65.6 -7.816,-8.87 -20.254,-15.13 -29.265,-15.92 l -11.469,15.68"
         style="fill:#231f20;fill-opacity:1;fill-rule:nonzero;stroke:none"
         id="path102" />
      <path
         d="m 626.801,2344.56 c 9.566,1.03 20.008,5.42 27.219,13.61 10.703,12.15 7.789,27.33 -5.469,39.01 -12.09,10.66 -23.641,12.1 -41.207,5.51 -21.031,-8.15 -40.52,-7.47 -58.848,8.68 -20.473,18.04 -25.226,43.32 -9.473,61.21 8.18,9.29 17.426,13.5 24.231,14.55 l 10.961,-15.48 c -5.059,-0.63 -14.176,-3.52 -21.512,-11.85 -11.062,-12.57 -4.543,-26.79 4.426,-34.69 12.285,-10.83 23.262,-10.56 41.465,-4.04 22.285,8.01 39.863,6.34 59.172,-10.67 20.281,-17.86 28.882,-43.88 9.769,-65.6 -7.816,-8.87 -20.254,-15.13 -29.265,-15.92 z"
         style="fill:none;stroke:#231f20;stroke-width:10.752;stroke-linecap:butt;stroke-linejoin:miter;stroke-miterlimit:4;stroke-dasharray:none;stroke-opacity:1"
         id="path104" />
      <path
         d="m 623.672,2529.02 -26.961,-25.78 -13.293,13.9 65.637,62.74 13.289,-13.9 -27.094,-25.9 107.758,-112.7 -11.578,-11.06 -107.758,112.7"
         style="fill:#231f20;fill-opacity:1;fill-rule:nonzero;stroke:none"
         id="path106" />
      <path
         d="m 623.672,2529.02 -26.961,-25.78 -13.293,13.9 65.637,62.74 13.289,-13.9 -27.094,-25.9 107.758,-112.7 -11.578,-11.06 z"
         style="fill:none;stroke:#231f20;stroke-width:10.752;stroke-linecap:butt;stroke-linejoin:miter;stroke-miterlimit:4;stroke-dasharray:none;stroke-opacity:1"
         id="path108" />
      <path
         d="m 687.406,2611.91 112.414,-134.41 -12.285,-10.28 -112.414,134.42 12.285,10.27"
         style="fill:#231f20;fill-opacity:1;fill-rule:nonzero;stroke:none"
         id="path110" />
      <path
         d="M 687.406,2611.91 799.82,2477.5 787.535,2467.22 675.121,2601.64 Z"
         style="fill:none;stroke:#231f20;stroke-width:10.752;stroke-linecap:butt;stroke-linejoin:miter;stroke-miterlimit:4;stroke-dasharray:none;stroke-opacity:1"
         id="path112" />
      <path
         d="m 755.117,2640.37 -30.152,-21.96 -11.328,15.55 73.406,53.45 11.32,-15.54 -30.3,-22.08 91.832,-126.06 -12.954,-9.43 -91.824,126.07"
         style="fill:#231f20;fill-opacity:1;fill-rule:nonzero;stroke:none"
         id="path114" />
      <path
         d="m 755.117,2640.37 -30.152,-21.96 -11.328,15.55 73.406,53.45 11.32,-15.54 -30.3,-22.08 91.832,-126.06 -12.954,-9.43 z"
         style="fill:none;stroke:#231f20;stroke-width:10.752;stroke-linecap:butt;stroke-linejoin:miter;stroke-miterlimit:4;stroke-dasharray:none;stroke-opacity:1"
         id="path116" />
      <path
         d="m 832.758,2716.51 52.676,-89.65 c 19.754,-33.63 38.691,-41.8 52.808,-33.5 15.528,9.12 17.031,29.91 -2.457,63.08 l -52.672,89.66 13.805,8.11 51.883,-88.32 c 27.258,-46.39 21.222,-75.27 -1.684,-88.73 -21.644,-12.71 -48.23,-4.82 -75.883,42.26 l -52.281,88.98 13.805,8.11"
         style="fill:#231f20;fill-opacity:1;fill-rule:nonzero;stroke:none"
         id="path118" />
      <path
         d="m 832.758,2716.51 52.676,-89.65 c 19.754,-33.63 38.691,-41.8 52.808,-33.5 15.528,9.12 17.031,29.91 -2.457,63.08 l -52.672,89.66 13.805,8.11 51.883,-88.32 c 27.258,-46.39 21.222,-75.27 -1.684,-88.73 -21.644,-12.71 -48.23,-4.82 -75.883,42.26 l -52.281,88.98 z"
         style="fill:none;stroke:#231f20;stroke-width:10.752;stroke-linecap:butt;stroke-linejoin:miter;stroke-miterlimit:4;stroke-dasharray:none;stroke-opacity:1"
         id="path120" />
      <path
         d="m 972.891,2770.09 -33.875,-15.61 -8.047,17.47 82.461,37.99 8.04,-17.46 -34.032,-15.69 65.272,-141.63 -14.54,-6.7 -65.279,141.63"
         style="fill:#231f20;fill-opacity:1;fill-rule:nonzero;stroke:none"
         id="path122" />
      <path
         d="m 972.891,2770.09 -33.875,-15.61 -8.047,17.47 82.461,37.99 8.04,-17.46 -34.032,-15.69 65.272,-141.63 -14.54,-6.7 z"
         style="fill:none;stroke:#231f20;stroke-width:10.752;stroke-linecap:butt;stroke-linejoin:miter;stroke-miterlimit:4;stroke-dasharray:none;stroke-opacity:1"
         id="path124" />
      <path
         d="m 1138.86,2757.13 -44.69,-16.05 21.32,-59.43 50,17.96 6.4,-17.86 -65.05,-23.37 -59.14,164.86 62.49,22.44 6.4,-17.85 -47.42,-17.03 18.69,-52.1 44.68,16.05 6.32,-17.62"
         style="fill:#231f20;fill-opacity:1;fill-rule:nonzero;stroke:none"
         id="path126" />
      <path
         d="m 1138.86,2757.13 -44.69,-16.05 21.32,-59.43 50,17.96 6.4,-17.86 -65.05,-23.37 -59.14,164.86 62.49,22.44 6.4,-17.85 -47.42,-17.03 18.69,-52.1 44.68,16.05 z"
         style="fill:none;stroke:#231f20;stroke-width:10.752;stroke-linecap:butt;stroke-linejoin:miter;stroke-miterlimit:4;stroke-dasharray:none;stroke-opacity:1"
         id="path128" />
      <path
         d="m 1237.49,2790.05 c 7.5,-36.96 28.08,-67 52.7,-62.01 24.61,4.99 31.95,40.17 24.04,79.16 -6.98,34.4 -26.71,67.54 -52.57,62.3 -25.87,-5.24 -31.78,-42 -24.17,-79.45 z m 92.94,21.49 c 11.95,-58.86 -6.78,-95.56 -37.46,-101.77 -31.93,-6.48 -61.24,24.46 -71.79,76.44 -11.07,54.53 5.23,94.98 37.34,101.49 33,6.69 61.52,-24.94 71.91,-76.16"
         style="fill:#231f20;fill-opacity:1;fill-rule:nonzero;stroke:none"
         id="path130" />
      <path
         d="m 1237.49,2790.05 c 7.5,-36.96 28.08,-67 52.7,-62.01 24.61,4.99 31.95,40.17 24.04,79.16 -6.98,34.4 -26.71,67.54 -52.57,62.3 -25.87,-5.24 -31.78,-42 -24.17,-79.45 z m 92.94,21.49 c 11.95,-58.86 -6.78,-95.56 -37.46,-101.77 -31.93,-6.48 -61.24,24.46 -71.79,76.44 -11.07,54.53 5.23,94.98 37.34,101.49 33,6.69 61.52,-24.94 71.91,-76.16 z"
         style="fill:none;stroke:#231f20;stroke-width:10.752;stroke-linecap:butt;stroke-linejoin:miter;stroke-miterlimit:4;stroke-dasharray:none;stroke-opacity:1"
         id="path132" />
      <path
         d="m 1358.38,2901.12 65.7,6.65 1.9,-18.88 -49.76,-5.04 5.84,-57.93 45.96,4.65 1.88,-18.62 -45.96,-4.65 7.95,-78.89 -15.92,-1.61 -17.59,174.32"
         style="fill:#231f20;fill-opacity:1;fill-rule:nonzero;stroke:none"
         id="path134" />
      <path
         d="m 1358.38,2901.12 65.7,6.65 1.9,-18.88 -49.76,-5.04 5.84,-57.93 45.96,4.65 1.88,-18.62 -45.96,-4.65 7.95,-78.89 -15.92,-1.61 z"
         style="fill:none;stroke:#231f20;stroke-width:10.752;stroke-linecap:butt;stroke-linejoin:miter;stroke-miterlimit:4;stroke-dasharray:none;stroke-opacity:1"
         id="path136" />
      <path
         d="m 1519.93,2763.82 c 6.95,-6.65 17.03,-11.82 27.94,-12.07 16.19,-0.36 25.92,11.63 26.31,29.3 0.36,16.12 -5.97,25.88 -22.32,35.09 -19.78,10.85 -31.81,26.2 -31.27,50.63 0.61,27.28 16.89,47.19 40.71,46.65 12.37,-0.28 21.56,-4.65 26.73,-9.18 l -4.78,-18.36 c -3.74,3.47 -11.81,8.59 -22.91,8.84 -16.73,0.38 -23.42,-13.76 -23.68,-25.72 -0.37,-16.37 6.91,-24.6 23.61,-34.33 20.48,-11.91 30.53,-26.43 29.96,-52.16 -0.61,-27.02 -14.96,-50.36 -43.88,-49.7 -11.82,0.27 -24.62,5.75 -31.02,12.14 l 4.6,18.87"
         style="fill:#231f20;fill-opacity:1;fill-rule:nonzero;stroke:none"
         id="path138" />
      <path
         d="m 1519.93,2763.82 c 6.95,-6.65 17.03,-11.82 27.94,-12.07 16.19,-0.36 25.92,11.63 26.31,29.3 0.36,16.12 -5.97,25.88 -22.32,35.09 -19.78,10.85 -31.81,26.2 -31.27,50.63 0.61,27.28 16.89,47.19 40.71,46.65 12.37,-0.28 21.56,-4.65 26.73,-9.18 l -4.78,-18.36 c -3.74,3.47 -11.81,8.59 -22.91,8.84 -16.73,0.38 -23.42,-13.76 -23.68,-25.72 -0.37,-16.37 6.91,-24.6 23.61,-34.33 20.48,-11.91 30.53,-26.43 29.96,-52.16 -0.61,-27.02 -14.96,-50.36 -43.88,-49.7 -11.82,0.27 -24.62,5.75 -31.02,12.14 z"
         style="fill:none;stroke:#231f20;stroke-width:10.752;stroke-linecap:butt;stroke-linejoin:miter;stroke-miterlimit:4;stroke-dasharray:none;stroke-opacity:1"
         id="path140" />
      <path
         d="m 1658.78,2885.2 -37.1,3.94 2.04,19.13 90.3,-9.6 -2.03,-19.12 -37.28,3.95 -16.48,-155.09 -15.93,1.7 16.48,155.09"
         style="fill:#231f20;fill-opacity:1;fill-rule:nonzero;stroke:none"
         id="path142" />
      <path
         d="m 1658.78,2885.2 -37.1,3.94 2.04,19.13 90.3,-9.6 -2.03,-19.12 -37.28,3.95 -16.48,-155.09 -15.93,1.7 z"
         style="fill:none;stroke:#231f20;stroke-width:10.752;stroke-linecap:butt;stroke-linejoin:miter;stroke-miterlimit:4;stroke-dasharray:none;stroke-opacity:1"
         id="path144" />
      <path
         d="m 1794.65,2789.2 -46.64,9.04 -12.01,-62 52.17,-10.11 -3.6,-18.63 -67.9,13.16 33.32,171.96 65.22,-12.64 -3.61,-18.63 -49.5,9.6 -10.53,-54.34 46.64,-9.05 -3.56,-18.36"
         style="fill:#231f20;fill-opacity:1;fill-rule:nonzero;stroke:none"
         id="path146" />
      <path
         d="m 1794.65,2789.2 -46.64,9.04 -12.01,-62 52.17,-10.11 -3.6,-18.63 -67.9,13.16 33.32,171.96 65.22,-12.64 -3.61,-18.63 -49.5,9.6 -10.53,-54.34 46.64,-9.05 z"
         style="fill:none;stroke:#231f20;stroke-width:10.752;stroke-linecap:butt;stroke-linejoin:miter;stroke-miterlimit:4;stroke-dasharray:none;stroke-opacity:1"
         id="path148" />
      <path
         d="m 1895.68,2762.32 -45.68,12.99 -17.28,-60.78 51.11,-14.52 -5.19,-18.26 -66.51,18.9 47.92,168.56 63.89,-18.15 -5.19,-18.26 -48.48,13.78 -15.15,-53.27 45.68,-12.98 -5.12,-18.01"
         style="fill:#231f20;fill-opacity:1;fill-rule:nonzero;stroke:none"
         id="path150" />
      <path
         d="m 1895.68,2762.32 -45.68,12.99 -17.28,-60.78 51.11,-14.52 -5.19,-18.26 -66.51,18.9 47.92,168.56 63.89,-18.15 -5.19,-18.26 -48.48,13.78 -15.15,-53.27 45.68,-12.98 z"
         style="fill:none;stroke:#231f20;stroke-width:10.752;stroke-linecap:butt;stroke-linejoin:miter;stroke-miterlimit:4;stroke-dasharray:none;stroke-opacity:1"
         id="path152" />
      <path
         d="m 1967.42,2836.34 14.97,-5.67 -55.3,-146.08 49,-18.55 -6.71,-17.74 -63.98,24.21 62.02,163.83"
         style="fill:#231f20;fill-opacity:1;fill-rule:nonzero;stroke:none"
         id="path154" />
      <path
         d="m 1967.42,2836.34 14.97,-5.67 -55.3,-146.08 49,-18.55 -6.71,-17.74 -63.98,24.21 z"
         style="fill:none;stroke:#231f20;stroke-width:10.752;stroke-linecap:butt;stroke-linejoin:miter;stroke-miterlimit:4;stroke-dasharray:none;stroke-opacity:1"
         id="path156" />
      <path
         d="m 2114.51,2581.39 c -6.94,-0.96 -19.32,1.02 -32.43,8.14 -30.39,16.49 -38.21,56.24 -10.67,106.94 26.3,48.43 66.79,68.45 100.21,50.31 13.27,-7.21 19.67,-16.01 21.86,-20.74 l -12.32,-14.32 c -3.14,6.44 -9.16,13.26 -18.12,18.12 -25.27,13.72 -54.58,-0.23 -76.54,-40.66 -20.6,-37.93 -18.43,-70.16 7.64,-84.31 8.63,-4.69 18.63,-6.86 26.34,-6.02 l -5.97,-17.46"
         style="fill:#231f20;fill-opacity:1;fill-rule:nonzero;stroke:none"
         id="path158" />
      <path
         d="m 2114.51,2581.39 c -6.94,-0.96 -19.32,1.02 -32.43,8.14 -30.39,16.49 -38.21,56.24 -10.67,106.94 26.3,48.43 66.79,68.45 100.21,50.31 13.27,-7.21 19.67,-16.01 21.86,-20.74 l -12.32,-14.32 c -3.14,6.44 -9.16,13.26 -18.12,18.12 -25.27,13.72 -54.58,-0.23 -76.54,-40.66 -20.6,-37.93 -18.43,-70.16 7.64,-84.31 8.63,-4.69 18.63,-6.86 26.34,-6.02 z"
         style="fill:none;stroke:#231f20;stroke-width:10.752;stroke-linecap:butt;stroke-linejoin:miter;stroke-miterlimit:4;stroke-dasharray:none;stroke-opacity:1"
         id="path160" />
      <path
         d="m 2192.2,2628.5 c -21.46,-30.98 -28.89,-66.62 -8.25,-80.91 20.63,-14.3 51.09,4.75 73.74,37.43 19.98,28.84 30.23,66 8.55,81.02 -21.68,15.02 -52.28,-6.14 -74.04,-37.54 z m 79.84,-52.16 c -34.19,-49.34 -73.63,-61.22 -99.35,-43.4 -26.77,18.54 -24.74,61.08 5.45,104.66 31.68,45.72 72.14,61.95 99.06,43.3 27.66,-19.17 24.59,-61.62 -5.16,-104.56"
         style="fill:#231f20;fill-opacity:1;fill-rule:nonzero;stroke:none"
         id="path162" />
      <path
         d="m 2192.2,2628.5 c -21.46,-30.98 -28.89,-66.62 -8.25,-80.91 20.63,-14.3 51.09,4.75 73.74,37.43 19.98,28.84 30.23,66 8.55,81.02 -21.68,15.02 -52.28,-6.14 -74.04,-37.54 z m 79.84,-52.16 c -34.19,-49.34 -73.63,-61.22 -99.35,-43.4 -26.77,18.54 -24.74,61.08 5.45,104.66 31.68,45.72 72.14,61.95 99.06,43.3 27.66,-19.17 24.59,-61.62 -5.16,-104.56 z"
         style="fill:none;stroke:#231f20;stroke-width:10.752;stroke-linecap:butt;stroke-linejoin:miter;stroke-miterlimit:4;stroke-dasharray:none;stroke-opacity:1"
         id="path164" />
      <path
         d="m 2242.53,2485.41 115.5,131.74 13.14,-11.52 -29.01,-92.43 c -6.83,-21.32 -13.52,-40 -21.1,-57.2 l 0.59,-0.16 c 14.32,18.54 28.1,34.82 46.09,55.34 l 48.32,55.12 11.23,-9.84 -115.5,-131.74 -12.04,10.55 29.31,92.52 c 6.42,20.3 13.45,40.75 21.45,58.97 l -0.58,0.16 c -13.89,-17.21 -27.63,-33.16 -46.82,-55.05 l -49.35,-56.3 -11.23,9.84"
         style="fill:#231f20;fill-opacity:1;fill-rule:nonzero;stroke:none"
         id="path166" />
      <path
         d="m 2242.53,2485.41 115.5,131.74 13.14,-11.52 -29.01,-92.43 c -6.83,-21.32 -13.52,-40 -21.1,-57.2 l 0.59,-0.16 c 14.32,18.54 28.1,34.82 46.09,55.34 l 48.32,55.12 11.23,-9.84 -115.5,-131.74 -12.04,10.55 29.31,92.52 c 6.42,20.3 13.45,40.75 21.45,58.97 l -0.58,0.16 c -13.89,-17.21 -27.63,-33.16 -46.82,-55.05 l -49.35,-56.3 z"
         style="fill:none;stroke:#231f20;stroke-width:10.752;stroke-linecap:butt;stroke-linejoin:miter;stroke-miterlimit:4;stroke-dasharray:none;stroke-opacity:1"
         id="path168" />
      <path
         d="m 2355.28,2419.96 c 0.11,-9.62 3.47,-20.43 10.93,-28.39 11.07,-11.82 26.45,-10.36 39.35,1.72 11.76,11.02 14.3,22.38 9.43,40.5 -6.09,21.72 -3.54,41.05 14.28,57.76 19.91,18.67 45.53,20.99 61.82,3.59 8.46,-9.02 11.77,-18.64 12.15,-25.51 l -16.45,-9.43 c -0.15,5.1 -2.14,14.45 -9.73,22.55 -11.44,12.21 -26.23,7.08 -34.95,-1.1 -11.95,-11.2 -12.73,-22.15 -7.99,-40.9 5.83,-22.95 2.49,-40.3 -16.29,-57.89 -19.72,-18.49 -46.43,-24.58 -66.21,-3.48 -8.08,8.64 -13.12,21.62 -13.04,30.66 l 16.7,9.92"
         style="fill:#231f20;fill-opacity:1;fill-rule:nonzero;stroke:none"
         id="path170" />
      <path
         d="m 2355.28,2419.96 c 0.11,-9.62 3.47,-20.43 10.93,-28.39 11.07,-11.82 26.45,-10.36 39.35,1.72 11.76,11.02 14.3,22.38 9.43,40.5 -6.09,21.72 -3.54,41.05 14.28,57.76 19.91,18.67 45.53,20.99 61.82,3.59 8.46,-9.02 11.77,-18.64 12.15,-25.51 l -16.45,-9.43 c -0.15,5.1 -2.14,14.45 -9.73,22.55 -11.44,12.21 -26.23,7.08 -34.95,-1.1 -11.95,-11.2 -12.73,-22.15 -7.99,-40.9 5.83,-22.95 2.49,-40.3 -16.29,-57.89 -19.72,-18.49 -46.43,-24.58 -66.21,-3.48 -8.08,8.64 -13.12,21.62 -13.04,30.66 z"
         style="fill:none;stroke:#231f20;stroke-width:10.752;stroke-linecap:butt;stroke-linejoin:miter;stroke-miterlimit:4;stroke-dasharray:none;stroke-opacity:1"
         id="path172" />
      <path
         d="m 2539.16,2405.63 -23.09,29.27 15.12,11.92 56.19,-71.27 -15.11,-11.91 -23.2,29.41 -122.5,-96.58 -9.9,12.57 122.49,96.59"
         style="fill:#231f20;fill-opacity:1;fill-rule:nonzero;stroke:none"
         id="path174" />
      <path
         d="m 2539.16,2405.63 -23.09,29.27 15.12,11.92 56.19,-71.27 -15.11,-11.91 -23.2,29.41 -122.5,-96.58 -9.9,12.57 z"
         style="fill:none;stroke:#231f20;stroke-width:10.752;stroke-linecap:butt;stroke-linejoin:miter;stroke-miterlimit:4;stroke-dasharray:none;stroke-opacity:1"
         id="path176" />
      <path
         d="m 2548.59,2286.97 8.88,-13.54 c 9.26,-14.15 26.23,-15.86 42.97,-4.89 18.92,12.4 20.9,27.4 11.74,41.4 -4.19,6.39 -7.73,10.37 -10.1,12.09 z m 58.09,56.98 c 6.12,-5.55 13.8,-14.43 19.68,-23.41 9.27,-14.15 11.43,-25.99 7.47,-37.5 -3.23,-9.29 -11.24,-18.9 -22.77,-26.45 -19.13,-12.54 -37.53,-12.43 -49.73,-5.2 l -0.65,-0.43 c 1.17,-10.32 -6.18,-21.88 -19.81,-34.29 -18.25,-16.74 -30.79,-28.44 -35.04,-34.27 l -8.97,13.69 c 3.25,4.52 14.15,14.93 30.62,29.64 18.23,16.29 22.15,26.91 14.94,39.35 l -8.18,12.48 -63.49,-41.61 -8.67,13.23 144.6,94.77"
         style="fill:#231f20;fill-opacity:1;fill-rule:nonzero;stroke:none"
         id="path178" />
      <path
         d="m 2548.59,2286.97 8.88,-13.54 c 9.26,-14.15 26.23,-15.86 42.97,-4.89 18.92,12.4 20.9,27.4 11.74,41.4 -4.19,6.39 -7.73,10.37 -10.1,12.09 z m 58.09,56.98 c 6.12,-5.55 13.8,-14.43 19.68,-23.41 9.27,-14.15 11.43,-25.99 7.47,-37.5 -3.23,-9.29 -11.24,-18.9 -22.77,-26.45 -19.13,-12.54 -37.53,-12.43 -49.73,-5.2 l -0.65,-0.43 c 1.17,-10.32 -6.18,-21.88 -19.81,-34.29 -18.25,-16.74 -30.79,-28.44 -35.04,-34.27 l -8.97,13.69 c 3.25,4.52 14.15,14.93 30.62,29.64 18.23,16.29 22.15,26.91 14.94,39.35 l -8.18,12.48 -63.49,-41.61 -8.67,13.23 z"
         style="fill:none;stroke:#231f20;stroke-width:10.752;stroke-linecap:butt;stroke-linejoin:miter;stroke-miterlimit:4;stroke-dasharray:none;stroke-opacity:1"
         id="path180" />
      <path
         d="m 2681.52,2227.28 -92.16,-48.15 c -34.57,-18.07 -43.67,-36.58 -36.09,-51.09 8.34,-15.97 29.02,-18.5 63.12,-0.69 l 92.16,48.16 7.42,-14.2 -90.78,-47.43 c -47.69,-24.92 -76.23,-17.45 -88.53,6.1 -11.62,22.25 -2.41,48.42 45.98,73.7 l 91.47,47.79 7.41,-14.19"
         style="fill:#231f20;fill-opacity:1;fill-rule:nonzero;stroke:none"
         id="path182" />
      <path
         d="m 2681.52,2227.28 -92.16,-48.15 c -34.57,-18.07 -43.67,-36.58 -36.09,-51.09 8.34,-15.97 29.02,-18.5 63.12,-0.69 l 92.16,48.16 7.42,-14.2 -90.78,-47.43 c -47.69,-24.92 -76.23,-17.45 -88.53,6.1 -11.62,22.25 -2.41,48.42 45.98,73.7 l 91.47,47.79 z"
         style="fill:none;stroke:#231f20;stroke-width:10.752;stroke-linecap:butt;stroke-linejoin:miter;stroke-miterlimit:4;stroke-dasharray:none;stroke-opacity:1"
         id="path184" />
      <path
         d="m 2611.77,1971.06 c -5.95,3.69 -14.21,13.12 -19.75,26.98 -12.85,32.09 6.52,67.67 60.11,89.11 51.18,20.48 95.12,10.04 109.25,-25.27 5.61,-14.02 4.91,-24.88 3.57,-29.92 l -18.63,-3.14 c 1.7,6.95 1.42,16.05 -2.36,25.51 -10.68,26.68 -42.16,34.66 -84.89,17.57 -40.07,-16.04 -58.99,-42.22 -47.98,-69.76 3.66,-9.12 9.96,-17.18 16.43,-21.45 l -15.75,-9.63"
         style="fill:#231f20;fill-opacity:1;fill-rule:nonzero;stroke:none"
         id="path186" />
      <path
         d="m 2611.77,1971.06 c -5.95,3.69 -14.21,13.12 -19.75,26.98 -12.85,32.09 6.52,67.67 60.11,89.11 51.18,20.48 95.12,10.04 109.25,-25.27 5.61,-14.02 4.91,-24.88 3.57,-29.92 l -18.63,-3.14 c 1.7,6.95 1.42,16.05 -2.36,25.51 -10.68,26.68 -42.16,34.66 -84.89,17.57 -40.07,-16.04 -58.99,-42.22 -47.98,-69.76 3.66,-9.12 9.96,-17.18 16.43,-21.45 z"
         style="fill:none;stroke:#231f20;stroke-width:10.752;stroke-linecap:butt;stroke-linejoin:miter;stroke-miterlimit:4;stroke-dasharray:none;stroke-opacity:1"
         id="path188" />
      <path
         d="m 2771.31,1964.99 -10.72,35.72 18.41,5.53 26.12,-86.95 -18.42,-5.53 -10.78,35.9 -149.32,-44.87 -4.61,15.34 149.32,44.86"
         style="fill:#231f20;fill-opacity:1;fill-rule:nonzero;stroke:none"
         id="path190" />
      <path
         d="m 2771.31,1964.99 -10.72,35.72 18.41,5.53 26.12,-86.95 -18.42,-5.53 -10.78,35.9 -149.32,-44.87 -4.61,15.34 z"
         style="fill:none;stroke:#231f20;stroke-width:10.752;stroke-linecap:butt;stroke-linejoin:miter;stroke-miterlimit:4;stroke-dasharray:none;stroke-opacity:1"
         id="path192" />
      <path
         d="m 2816.28,1870.97 -170.62,-39.7 -3.62,15.59 170.62,39.7 3.62,-15.59"
         style="fill:#231f20;fill-opacity:1;fill-rule:nonzero;stroke:none"
         id="path194" />
      <path
         d="m 2816.28,1870.97 -170.62,-39.7 -3.62,15.59 170.62,39.7 z"
         style="fill:none;stroke:#231f20;stroke-width:10.752;stroke-linecap:butt;stroke-linejoin:miter;stroke-miterlimit:4;stroke-dasharray:none;stroke-opacity:1"
         id="path196" />
      <path
         d="m 2741.3,1799.9 c -37.26,-5.71 -68.25,-24.82 -64.44,-49.65 3.81,-24.82 38.6,-33.85 77.92,-27.83 34.68,5.31 68.73,23.42 64.72,49.5 -4,26.09 -40.42,33.77 -78.2,27.98 z m 17.04,-93.88 c -59.36,-9.09 -95.11,11.4 -99.86,42.34 -4.94,32.2 27.35,59.98 79.77,68.01 54.99,8.43 94.61,-9.81 99.58,-42.19 5.11,-33.28 -27.84,-60.24 -79.49,-68.16"
         style="fill:#231f20;fill-opacity:1;fill-rule:nonzero;stroke:none"
         id="path198" />
      <path
         d="m 2741.3,1799.9 c -37.26,-5.71 -68.25,-24.82 -64.44,-49.65 3.81,-24.82 38.6,-33.85 77.92,-27.83 34.68,5.31 68.73,23.42 64.72,49.5 -4,26.09 -40.42,33.77 -78.2,27.98 z m 17.04,-93.88 c -59.36,-9.09 -95.11,11.4 -99.86,42.34 -4.94,32.2 27.35,59.98 79.77,68.01 54.99,8.43 94.61,-9.81 99.58,-42.19 5.11,-33.28 -27.84,-60.24 -79.49,-68.16 z"
         style="fill:none;stroke:#231f20;stroke-width:10.752;stroke-linecap:butt;stroke-linejoin:miter;stroke-miterlimit:4;stroke-dasharray:none;stroke-opacity:1"
         id="path200" />
      <path
         d="m 2672.17,1664.68 175.04,8.22 0.82,-17.44 -86.72,-43.23 c -20.1,-9.87 -38.2,-18.01 -55.85,-24.49 l 0.28,-0.53 c 23.31,2.55 44.59,3.92 71.86,5.2 l 73.23,3.44 0.7,-14.9 -175.04,-8.23 -0.75,16 86.99,43.06 c 19.08,9.46 38.69,18.58 57.37,25.47 l -0.29,0.53 c -22.03,-1.95 -43.06,-3.12 -72.14,-4.49 l -74.8,-3.52 -0.7,14.91"
         style="fill:#231f20;fill-opacity:1;fill-rule:nonzero;stroke:none"
         id="path202" />
      <path
         d="m 2672.17,1664.68 175.04,8.22 0.82,-17.44 -86.72,-43.23 c -20.1,-9.87 -38.2,-18.01 -55.85,-24.49 l 0.28,-0.53 c 23.31,2.55 44.59,3.92 71.86,5.2 l 73.23,3.44 0.7,-14.9 -175.04,-8.23 -0.75,16 86.99,43.06 c 19.08,9.46 38.69,18.58 57.37,25.47 l -0.29,0.53 c -22.03,-1.95 -43.06,-3.12 -72.14,-4.49 l -74.8,-3.52 z"
         style="fill:none;stroke:#231f20;stroke-width:10.752;stroke-linecap:butt;stroke-linejoin:miter;stroke-miterlimit:4;stroke-dasharray:none;stroke-opacity:1"
         id="path204" />
      <path
         d="m 2847.52,1460.82 -174.83,11.1 1.02,15.98 174.83,-11.1 -1.02,-15.98"
         style="fill:#231f20;fill-opacity:1;fill-rule:nonzero;stroke:none"
         id="path206" />
      <path
         d="m 2847.52,1460.82 -174.83,11.1 1.02,15.98 174.83,-11.1 z"
         style="fill:none;stroke:#231f20;stroke-width:10.752;stroke-linecap:butt;stroke-linejoin:miter;stroke-miterlimit:4;stroke-dasharray:none;stroke-opacity:1"
         id="path208" />
      <path
         d="m 2755.23,1414.28 c -37.32,5.22 -72.49,-4.19 -75.97,-29.06 -3.47,-24.87 27.26,-43.5 66.64,-49.01 34.75,-4.86 72.55,2.71 76.2,28.84 3.66,26.13 -29.02,43.93 -66.87,49.23 z m -10.62,-94.79 c -59.46,8.32 -87.83,38.19 -83.5,69.19 4.51,32.25 43.41,49.59 95.93,42.25 55.08,-7.71 87.8,-36.54 83.27,-68.98 -4.66,-33.33 -43.95,-49.7 -95.7,-42.46"
         style="fill:#231f20;fill-opacity:1;fill-rule:nonzero;stroke:none"
         id="path210" />
      <path
         d="m 2755.23,1414.28 c -37.32,5.22 -72.49,-4.19 -75.97,-29.06 -3.47,-24.87 27.26,-43.5 66.64,-49.01 34.75,-4.86 72.55,2.71 76.2,28.84 3.66,26.13 -29.02,43.93 -66.87,49.23 z m -10.62,-94.79 c -59.46,8.32 -87.83,38.19 -83.5,69.19 4.51,32.25 43.41,49.59 95.93,42.25 55.08,-7.71 87.8,-36.54 83.27,-68.98 -4.66,-33.33 -43.95,-49.7 -95.7,-42.46 z"
         style="fill:none;stroke:#231f20;stroke-width:10.752;stroke-linecap:butt;stroke-linejoin:miter;stroke-miterlimit:4;stroke-dasharray:none;stroke-opacity:1"
         id="path212" />
      <path
         d="m 2650.23,1304.75 169.9,-42.68 -4.25,-16.95 -95.47,-16.36 c -22.08,-3.65 -41.75,-6.22 -60.51,-7.32 l 0.11,-0.59 c 23.05,-4.29 43.8,-9.13 70.27,-15.78 l 71.09,-17.85 -3.63,-14.48 -169.9,42.68 3.89,15.54 95.68,16.12 c 20.99,3.55 42.39,6.62 62.25,7.82 l -0.12,0.59 c -21.64,4.5 -42.11,9.46 -70.34,16.55 l -72.6,18.23 3.63,14.48"
         style="fill:#231f20;fill-opacity:1;fill-rule:nonzero;stroke:none"
         id="path214" />
      <path
         d="m 2650.23,1304.75 169.9,-42.68 -4.25,-16.95 -95.47,-16.36 c -22.08,-3.65 -41.75,-6.22 -60.51,-7.32 l 0.11,-0.59 c 23.05,-4.29 43.8,-9.13 70.27,-15.78 l 71.09,-17.85 -3.63,-14.48 -169.9,42.68 3.89,15.54 95.68,16.12 c 20.99,3.55 42.39,6.62 62.25,7.82 l -0.12,0.59 c -21.64,4.5 -42.11,9.46 -70.34,16.55 l -72.6,18.23 z"
         style="fill:none;stroke:#231f20;stroke-width:10.752;stroke-linecap:butt;stroke-linejoin:miter;stroke-miterlimit:4;stroke-dasharray:none;stroke-opacity:1"
         id="path216" />
      <path
         d="m 1305.39,649.898 c 38.07,0 68.93,8.024 68.93,46.071 V 2445.07 c 0,38.06 -30.86,34.66 -68.93,34.66 v 0 c -38.07,0 -68.93,-42.28 -68.93,-80.35 V 735.969 c 0,-38.071 30.86,-86.071 68.93,-86.071 v 0"
         style="fill:#ffffff;fill-opacity:1;fill-rule:nonzero;stroke:none"
         id="path218" />
      <path
         d="m 842.605,1630.39 c -68.75,0 -99.382,12.37 -112.074,26.61 16.078,115.81 70.223,321.93 225.321,446.01 v -454.02 c -18.668,-10.34 -52.516,-18.6 -113.247,-18.6 z m 123.094,704.01 c -128,-103.38 -369.246,-349.54 -369.246,-797.55 0,0 0,-182.16 54.156,-256 54.161,-73.84 118.161,-14.77 103.383,44.32 -8.594,34.37 -17.097,93.71 -22.777,150.95 12.922,11.57 42.492,21.34 106.484,21.34 78.766,0 108.313,-20.92 118.153,-41.83 V 891.922 c 0,0 -4.914,-93.531 49.228,-113.223 54.15,-19.699 83.7,-14.769 78.77,19.692 V 2349.18 c 0,0 9.85,88.61 -118.151,-14.78"
         style="fill:#ffffff;fill-opacity:1;fill-rule:nonzero;stroke:none"
         id="path220" />
      <path
         d="m 1846.93,2462.4 c 0,0 -163.35,41.61 -251.07,54.16 -68.93,9.83 -103.39,-34.47 -103.39,-103.39 0,-68.92 0,-782.78 0,-832 0,-49.24 -4.93,-78.78 172.31,-78.78 0,0 68.92,34.46 73.84,-83.69 V 857.469 c 0,0 34.46,-68.93 -73.84,-83.699 -108.32,-14.77 -172.31,-9.84 -172.31,-98.469 0,-88.602 157.54,-34.461 157.54,-34.461 l 157.53,29.539 c 0,0 68.93,9.851 68.93,132.93 0,123.07 0,777.861 0,777.861 0,0 14.78,78.76 -113.23,68.91 -128,-9.84 -137.85,-14.76 -137.85,93.54 0,108.31 0,571.08 0,571.08 0,0 4.93,68.93 93.54,54.15 88.61,-14.76 162.47,-73.83 162.47,14.78 0,59.08 -34.47,78.77 -34.47,78.77"
         style="fill:#ffffff;fill-opacity:1;fill-rule:nonzero;stroke:none"
         id="path222" />
      <path
         d="M 2014.31,857.469 V 2299.93 c 0,0 -9.84,98.47 98.47,4.93 108.3,-93.54 211.7,-172.3 290.47,-433.23 0,0 14.76,-34.46 -29.54,-49.24 -44.32,-14.76 -93.54,9.86 -118.16,64 -24.61,54.16 -44.31,115.6 -104.96,154.98 v -972.22 c 0,0 70.49,73.86 100.04,167.39 29.54,93.55 78.76,118.15 113.24,103.39 34.46,-14.76 64,-24.61 19.68,-123.08 -44.31,-98.45 -73.84,-236.311 -305.24,-393.85 0,0 -64,-54.148 -64,34.469"
         style="fill:#ffffff;fill-opacity:1;fill-rule:nonzero;stroke:none"
         id="path224" />
      <path
         d="m 728.418,685.5 -9.184,-60.371 34.129,-32.481 -57.543,-20.957 -34.211,-43.39 -23.851,49.16 -50.988,22.988 38.535,34.012 10.711,59.238 39.644,-29.769 52.758,21.57"
         style="fill:#231f20;fill-opacity:1;fill-rule:nonzero;stroke:none"
         id="path226" />
      <path
         d="m 2377.5,739.129 60.37,-9.18 32.48,34.121 20.95,-57.539 43.4,-34.211 -49.16,-23.84 -23,-51 -34,38.532 -59.23,10.718 29.76,39.641 -21.57,52.758"
         style="fill:#231f20;fill-opacity:1;fill-rule:nonzero;stroke:none"
         id="path228" />
    </g>
  </g>
</svg>
